<svg width="24.000000" height="24.000000" viewBox="0 0 24 24" fill="none" xmlns="http://www.w3.org/2000/svg" xmlns:xlink="http://www.w3.org/1999/xlink">
	<desc>
			Created with Pixso.
	</desc>
	<defs>
		<clipPath id="clip1_10946">
			<rect id="ic:round-call" rx="-0.500000" width="23.000000" height="23.000000" transform="translate(0.500000 0.500000)" fill="white" fill-opacity="0"/>
		</clipPath>
	</defs>
	<rect id="ic:round-call" rx="-0.500000" width="23.000000" height="23.000000" transform="translate(0.500000 0.500000)" fill="#FFFFFF" fill-opacity="0"/>
	<g clip-path="url(#clip1_10946)">
		<path id="Vector" d="M19.23 15.25L16.69 14.96C16.39 14.93 16.08 14.96 15.8 15.06C15.52 15.16 15.26 15.32 15.05 15.53L13.21 17.37C10.37 15.93 8.06 13.62 6.62 10.78L8.47 8.93C8.9 8.5 9.11 7.9 9.04 7.29L8.75 4.77C8.69 4.29 8.45 3.84 8.09 3.51C7.72 3.18 7.25 3 6.76 3L5.03 3C3.9 3 2.96 3.94 3.03 5.07C3.56 13.61 10.39 20.43 18.92 20.96C20.04 21.03 20.99 20.09 20.99 18.96L20.99 17.23C21 16.22 20.24 15.37 19.23 15.25Z" fill="#C98A40" fill-opacity="1.000000" fill-rule="nonzero"/>
	</g>
</svg>
