<svg width="18.000000" height="18.000000" viewBox="0 0 18 18" fill="none" xmlns="http://www.w3.org/2000/svg" xmlns:xlink="http://www.w3.org/1999/xlink">
	<desc>
			Created with Pixso.
	</desc>
	<defs/>
	<path id="Vector" d="M3.28 0C1.46 0 0 1.46 0 3.28L0 14.71C0 16.53 1.46 18 3.28 18L9.47 18L9.47 10.96L7.61 10.96L7.61 8.42L9.47 8.42L9.47 6.26C9.47 4.56 10.57 3 13.11 3C14.13 3 14.89 3.1 14.89 3.1L14.83 5.46C14.83 5.46 14.06 5.46 13.21 5.46C12.3 5.46 12.15 5.88 12.15 6.57L12.15 8.42L14.9 8.42L14.78 10.96L12.15 10.96L12.15 18L14.71 18C16.53 18 18 16.53 18 14.71L18 3.28C18 1.46 16.53 0 14.71 0L3.28 0L3.28 0Z" fill="#C98A40" fill-opacity="1.000000" fill-rule="nonzero"/>
</svg>
