<svg width="19.000000" height="19.000000" viewBox="0 0 19 19" fill="none" xmlns="http://www.w3.org/2000/svg" xmlns:xlink="http://www.w3.org/1999/xlink">
	<desc>
			Created with Pixso.
	</desc>
	<defs/>
	<path id="Vector" d="M17.94 5.3C17.93 4.54 17.79 3.79 17.52 3.08C17.29 2.49 16.94 1.94 16.48 1.49C16.03 1.04 15.49 0.68 14.89 0.45C14.19 0.19 13.45 0.05 12.7 0.03C11.74 -0.01 11.44 -0.02 9 -0.02C6.55 -0.02 6.24 -0.02 5.29 0.03C4.54 0.05 3.8 0.19 3.1 0.45C2.5 0.68 1.96 1.04 1.51 1.49C1.05 1.94 0.7 2.49 0.47 3.08C0.2 3.78 0.06 4.52 0.05 5.27C0.01 6.23 -0.01 6.54 -0.01 8.98C-0.01 11.42 -0.01 11.73 0.05 12.69C0.06 13.44 0.2 14.17 0.47 14.88C0.7 15.47 1.05 16.02 1.51 16.47C1.96 16.92 2.5 17.28 3.1 17.51C3.8 17.78 4.54 17.93 5.29 17.96C6.25 18 6.55 18.01 9 18.01C11.44 18.01 11.75 18.01 12.71 17.96C13.45 17.94 14.19 17.8 14.89 17.54C15.49 17.31 16.03 16.95 16.49 16.5C16.94 16.05 17.29 15.5 17.53 14.91C17.79 14.21 17.93 13.47 17.94 12.72C17.99 11.76 18 11.45 18 9.01C18 6.57 18 6.26 17.94 5.3ZM8.99 13.6C6.44 13.6 4.37 11.53 4.37 8.97C4.37 6.42 6.44 4.35 8.99 4.35C10.22 4.35 11.39 4.84 12.26 5.7C13.12 6.57 13.61 7.75 13.61 8.97C13.61 10.2 13.12 11.38 12.26 12.24C11.39 13.11 10.22 13.6 8.99 13.6ZM13.8 5.26C13.2 5.26 12.72 4.78 12.72 4.18C12.72 4.04 12.75 3.9 12.8 3.77C12.85 3.64 12.93 3.52 13.03 3.42C13.13 3.32 13.25 3.24 13.38 3.18C13.51 3.13 13.65 3.1 13.8 3.1C13.94 3.1 14.08 3.13 14.21 3.18C14.34 3.24 14.46 3.32 14.56 3.42C14.66 3.52 14.74 3.64 14.79 3.77C14.85 3.9 14.87 4.04 14.87 4.18C14.87 4.78 14.39 5.26 13.8 5.26Z" fill="#C98A40" fill-opacity="1.000000" fill-rule="nonzero"/>
</svg>
