<svg width="19.000000" height="15.000000" viewBox="0 0 19 15" fill="none" xmlns="http://www.w3.org/2000/svg" xmlns:xlink="http://www.w3.org/1999/xlink">
	<desc>
			Created with Pixso.
	</desc>
	<defs/>
	<path id="Vector" d="M18.75 0.96C18.03 1.26 17.25 1.49 16.44 1.57C17.28 1.08 17.9 0.29 18.2 -0.63C17.42 -0.16 16.56 0.16 15.67 0.34C15.29 -0.06 14.84 -0.38 14.34 -0.6C13.83 -0.82 13.29 -0.93 12.75 -0.93C10.53 -0.93 8.75 0.87 8.75 3.07C8.75 3.38 8.79 3.69 8.85 3.99C5.53 3.81 2.57 2.23 0.61 -0.2C0.25 0.42 0.06 1.11 0.06 1.82C0.06 3.21 0.77 4.43 1.84 5.15C1.21 5.13 0.59 4.95 0.04 4.64L0.04 4.69C0.04 6.64 1.41 8.25 3.24 8.62C2.9 8.71 2.54 8.75 2.19 8.75C1.93 8.75 1.68 8.73 1.43 8.69C1.94 10.28 3.41 11.43 5.17 11.46C3.8 12.54 2.08 13.17 0.21 13.17C-0.13 13.17 -0.44 13.16 -0.76 13.12C1.01 14.26 3.12 14.92 5.38 14.92C12.73 14.92 16.75 8.83 16.75 3.54C16.75 3.37 16.75 3.2 16.74 3.02C17.52 2.45 18.2 1.75 18.75 0.96Z" fill="#C98A40" fill-opacity="1.000000" fill-rule="nonzero"/>
</svg>
